<?xml version="1.0" encoding="UTF-8"?>
<svg width="1200pt" height="1200pt" version="1.1" viewBox="0 0 1200 1200" xmlns="http://www.w3.org/2000/svg">
 <g>
  <path fill="white" d="m564.6 660.3c4.6562 4.6641 10.195 8.3555 16.297 10.848 12.219 5.1367 25.984 5.1367 38.203 0 6.1016-2.4922 11.641-6.1836 16.297-10.848l150-150c12.27-12.699 16.926-30.93 12.258-47.957s-17.973-30.332-35-35-35.258-0.011719-47.957 12.258l-64.699 64.699v-254.3c0-17.863-9.5312-34.371-25-43.301-15.469-8.9336-34.531-8.9336-50 0-15.469 8.9297-25 25.438-25 43.301v254.3l-64.648-64.652c-12.703-12.266-30.93-16.922-47.957-12.254-17.027 4.668-30.332 17.973-35 35-4.668 17.027-0.011719 35.254 12.254 47.957z"/>
  <path fill="white" d="m1050 650c-13.262 0-25.98 5.2695-35.355 14.645s-14.645 22.094-14.645 35.355v150c0 13.262-5.2695 25.98-14.645 35.355s-22.094 14.645-35.355 14.645h-700c-13.262 0-25.98-5.2695-35.355-14.645s-14.645-22.094-14.645-35.355v-150c0-17.863-9.5312-34.371-25-43.301-15.469-8.9336-34.531-8.9336-50 0-15.469 8.9297-25 25.438-25 43.301v150c0 39.781 15.805 77.938 43.934 106.07s66.285 43.934 106.07 43.934h700c39.781 0 77.938-15.805 106.07-43.934s43.934-66.285 43.934-106.07v-150c0-13.262-5.2695-25.98-14.645-35.355s-22.094-14.645-35.355-14.645z"/>
 </g>
</svg>
